<?xml version="1.0" encoding="iso-8859-1"?>
<!-- Generator: Adobe Illustrator 19.0.0, SVG Export Plug-In . SVG Version: 6.00 Build 0)  -->
<svg version="1.1" id="Capa_1" xmlns="http://www.w3.org/2000/svg" xmlns:xlink="http://www.w3.org/1999/xlink" x="0px" y="0px"
	 viewBox="0 0 512 512" style="enable-background:new 0 0 512 512;" xml:space="preserve">
<path style="fill:#303C42;" d="M256,0C114.833,0,0,114.844,0,256s114.833,256,256,256s256-114.844,256-256S397.167,0,256,0z"/>
<path style="fill:#FFD54F;" d="M256,490.667C126.604,490.667,21.333,385.396,21.333,256S126.604,21.333,256,21.333
	S490.667,126.604,490.667,256S385.396,490.667,256,490.667z"/>
<path style="fill:#303C42;" d="M256,448c-105.869,0-192-86.131-192-192S150.131,64,256,64s192,86.131,192,192S361.869,448,256,448z"
	/>
<circle style="fill:#FFDD72;" cx="256" cy="256" r="170.667"/>
<circle style="fill:#303C42;" cx="192" cy="192" r="21.333"/>
<path style="opacity:0.3;enable-background:new    ;" d="M181.333,202.667c0-11.76,9.563-21.333,21.333-21.333
	c3.12,0,6.034,0.747,8.706,1.954c-3.349-7.404-10.725-12.621-19.372-12.621c-11.771,0-21.333,9.573-21.333,21.333
	c0,8.645,5.216,16.031,12.628,19.379C182.085,208.704,181.333,205.788,181.333,202.667z"/>
<path style="opacity:0.1;enable-background:new    ;" d="M140.965,381.703C113.142,351.326,96,311.01,96,266.667
	C96,172.561,172.561,96,266.667,96c44.342,0,84.658,17.142,115.035,44.965C350.477,106.874,305.763,85.333,256,85.333
	c-94.105,0-170.667,76.561-170.667,170.667C85.333,305.763,106.874,350.478,140.965,381.703z"/>
<linearGradient id="SVGID_1_" gradientUnits="userSpaceOnUse" x1="-34.5548" y1="634.3096" x2="-26.9418" y2="626.6966" gradientTransform="matrix(21.3333 0 0 -21.3333 996.3334 13791.667)">
	<stop  offset="0" style="stop-color:#000000;stop-opacity:0.1"/>
	<stop  offset="1" style="stop-color:#000000;stop-opacity:0"/>
</linearGradient>
<path style="fill:url(#SVGID_1_);" d="M487.189,217.245l-82.193-82.193l-0.038,0.033C431.827,168.122,448,210.194,448,256
	c0,105.868-86.13,192-192,192c-51.184,0-97.635-20.257-132.09-53.017l92.001,92.001c13.055,2.262,26.397,3.682,40.089,3.682
	c129.396,0,234.667-105.271,234.667-234.667C490.667,242.772,489.302,229.882,487.189,217.245z"/>
<circle style="fill:#303C42;" cx="320" cy="192" r="21.333"/>
<path style="opacity:0.3;enable-background:new    ;" d="M309.333,202.667c0-11.76,9.563-21.333,21.333-21.333
	c3.12,0,6.034,0.747,8.706,1.954c-3.349-7.404-10.725-12.621-19.372-12.621c-11.771,0-21.333,9.573-21.333,21.333
	c0,8.645,5.216,16.031,12.628,19.379C310.085,208.704,309.333,205.788,309.333,202.667z"/>
<circle style="fill:#303C42;" cx="192" cy="320" r="21.333"/>
<path style="opacity:0.3;enable-background:new    ;" d="M181.333,330.667c0-11.76,9.563-21.333,21.333-21.333
	c3.12,0,6.034,0.747,8.706,1.954c-3.349-7.404-10.725-12.621-19.372-12.621c-11.771,0-21.333,9.573-21.333,21.333
	c0,8.645,5.216,16.031,12.628,19.379C182.085,336.704,181.333,333.788,181.333,330.667z"/>
<circle style="fill:#303C42;" cx="320" cy="320" r="21.333"/>
<path style="opacity:0.3;enable-background:new    ;" d="M309.333,330.667c0-11.76,9.563-21.333,21.333-21.333
	c3.12,0,6.034,0.747,8.706,1.954c-3.349-7.404-10.725-12.621-19.372-12.621c-11.771,0-21.333,9.573-21.333,21.333
	c0,8.645,5.216,16.031,12.628,19.379C310.085,336.704,309.333,333.788,309.333,330.667z"/>
<linearGradient id="SVGID_2_" gradientUnits="userSpaceOnUse" x1="-45.5785" y1="639.5551" x2="-23.8277" y2="629.4137" gradientTransform="matrix(21.3333 0 0 -21.3333 996.3334 13791.667)">
	<stop  offset="0" style="stop-color:#FFFFFF;stop-opacity:0.2"/>
	<stop  offset="1" style="stop-color:#FFFFFF;stop-opacity:0"/>
</linearGradient>
<path style="fill:url(#SVGID_2_);" d="M256,0C114.833,0,0,114.844,0,256s114.833,256,256,256s256-114.844,256-256S397.167,0,256,0z"
	/>
<g>
</g>
<g>
</g>
<g>
</g>
<g>
</g>
<g>
</g>
<g>
</g>
<g>
</g>
<g>
</g>
<g>
</g>
<g>
</g>
<g>
</g>
<g>
</g>
<g>
</g>
<g>
</g>
<g>
</g>
</svg>
