<?xml version="1.0" encoding="UTF-8"?>
<svg width="14px" height="8px" viewBox="0 0 14 8" version="1.1" xmlns="http://www.w3.org/2000/svg" xmlns:xlink="http://www.w3.org/1999/xlink">
    <!-- Generator: Sketch 43.2 (39069) - http://www.bohemiancoding.com/sketch -->
    <title>Group</title>
    <desc>Created with Sketch.</desc>
    <defs></defs>
    <g id="Page-1" stroke="none" stroke-width="1" fill="none" fill-rule="evenodd">
        <g id="Group" transform="translate(-1.000000, -1.000000)" fill-rule="nonzero" fill="#DF6741">
            <path d="M8.99304988,6.26183035 L6.79704988,7.25283035 L6.79704988,7.25383035 C6.24504988,7.50983035 5.78604988,7.97583035 5.55004988,8.59583035 C5.07104988,9.85283035 5.68404988,11.2628304 6.92004988,11.7458304 C8.15604988,12.2288304 9.54704988,11.6008304 10.0260499,10.3448304 C10.3080499,9.60683035 10.2100499,8.81683035 9.83304988,8.19183035 L8.99304988,6.26183035 Z M9.35404988,10.0818304 C9.01804988,10.9618304 8.04504988,11.4008304 7.18004988,11.0628304 C6.31504988,10.7248304 5.88604988,9.73783035 6.22104988,8.85783035 C6.34404988,8.53483035 6.55404988,8.27083035 6.81304988,8.08383035 L8.65504988,7.19183035 L9.42904988,9.10383035 C9.49704988,9.41883035 9.47804988,9.75783035 9.35404988,10.0818304 L9.35404988,10.0818304 Z M9.13804988,-1.84616965 C7.90204988,-2.32916965 6.51104988,-1.70216965 6.03204988,-0.445169648 C5.75004988,0.292830352 5.84804988,1.08283035 6.22504988,1.70783035 L7.06404988,3.63683035 L9.26004988,2.64683035 L9.26004988,2.64583035 C9.81204988,2.38983035 10.2710499,1.92383035 10.5080499,1.30383035 C10.9870499,0.0468303515 10.3740499,-1.36316965 9.13804988,-1.84616965 Z M9.83604988,1.04083035 C9.71304988,1.36483035 9.50304988,1.62783035 9.24404988,1.81483035 L7.40204988,2.70683035 L6.62804988,0.795830352 C6.56004988,0.479830352 6.57904988,0.141830352 6.70304988,-0.183169648 C7.03904988,-1.06316965 8.01204988,-1.50216965 8.87704988,-1.16416965 C9.74204988,-0.826169648 10.1720499,0.160830352 9.83604988,1.04083035 L9.83604988,1.04083035 Z M9.53504988,3.18283035 L6.37904988,4.57583035 L6.67904988,5.24983035 L9.83504988,3.85783035 L9.53504988,3.18283035 L9.53504988,3.18283035 Z M6.52204988,6.71583035 L9.67804988,5.32383035 L9.37804988,4.64983035 L6.22204988,6.04183035 L6.52204988,6.71583035 L6.52204988,6.71583035 Z" id="Shape" transform="translate(8.029050, 4.949770) rotate(75.000000) translate(-8.029050, -4.949770) "></path>
        </g>
    </g>
</svg>